<svg width="24" height="24" viewBox="0 0 54 54" fill="none" xmlns="http://www.w3.org/2000/svg">
<path d="M26.9734 53.6666C12.2493 53.6519 0.323572 41.7063 0.33338 26.9821C0.3432 12.258 12.2848 0.328352 27.0089 0.333253C41.733 0.338158 53.6667 12.2758 53.6667 26.9999C53.6579 41.7343 41.7077 53.6725 26.9734 53.6666ZM5.66671 27.4586C5.79289 39.1952 15.3763 48.6254 27.1135 48.5626C38.8506 48.4992 48.3321 38.9666 48.3321 27.2292C48.3321 15.4919 38.8506 5.9593 27.1135 5.8959C15.3763 5.83313 5.79289 15.2633 5.66671 26.9999V27.4586ZM29.6667 40.3332H24.3334V34.9999H29.6667V40.3332ZM29.6667 29.6666H24.3334V13.6666H29.6667V29.6666Z" fill="#EE6559"/>
</svg>
