<svg width="54" height="54" viewBox="0 0 54 54" fill="none" xmlns="http://www.w3.org/2000/svg">
<path d="M26.64 53.6667C11.9159 53.6519 -0.00980153 41.7063 6.0449e-06 26.9822C0.00982573 12.2581 11.9514 0.328413 26.6756 0.333314C41.3997 0.338219 53.3333 12.2758 53.3333 27C53.3245 41.7343 41.3744 53.6725 26.64 53.6667ZM5.33334 27.4586C5.45952 39.1953 15.043 48.6254 26.7801 48.5626C38.5173 48.4992 47.9988 38.9666 47.9988 27.2293C47.9988 15.492 38.5173 5.95936 26.7801 5.89596C15.043 5.83319 5.45952 15.2633 5.33334 27V27.4586ZM29.3333 40.3333H24V35H29.3333V40.3333ZM29.3333 29.6666H24V13.6666H29.3333V29.6666Z" fill="#FF5286"/>
</svg>
