<svg width="143" height="91" viewBox="0 0 143 91" fill="none" xmlns="http://www.w3.org/2000/svg">
<path opacity="0.2" d="M121.817 73.8706C133.347 73.8706 142.694 64.7635 142.694 53.5294C142.694 42.2953 133.347 33.1882 121.817 33.1882C110.288 33.1882 100.941 42.2953 100.941 53.5294C100.941 64.7635 110.288 73.8706 121.817 73.8706Z" fill="#B4C5D5"/>
<g>
<path d="M74.7115 91C99.8405 91 120.212 70.629 120.212 45.5C120.212 20.371 99.8405 0 74.7115 0C49.5826 0 29.2115 20.371 29.2115 45.5C29.2115 70.629 49.5826 91 74.7115 91Z" fill="#404E59" fill-opacity="0.35"/>
</g>
<g>
<path d="M28.6763 65.3059C44.3449 65.3059 57.0468 52.6039 57.0468 36.9353C57.0468 21.2666 44.3449 8.5647 28.6763 8.5647C13.0076 8.5647 0.305664 21.2666 0.305664 36.9353C0.305664 52.6039 13.0076 65.3059 28.6763 65.3059Z" fill="#636F7A" fill-opacity="0.2"/>
</g>
</svg>
