<svg width="17" height="16" viewBox="0 0 17 16" fill="#B4C5D5" xmlns="http://www.w3.org/2000/svg">
    <path d="M8.50016 14.6666C4.81994 14.6626 1.83754 11.6802 1.8335 7.99993V7.8666C1.90678 4.20295 4.92322 1.28523 8.58728 1.33385C12.2513 1.38247 15.1893 4.37919 15.1654 8.04349C15.1414 11.7078 12.1645 14.6659 8.50016 14.6666ZM8.4895 13.3333H8.50016C11.4446 13.3303 13.8296 10.9417 13.8282 7.99727C13.8267 5.05279 11.4393 2.6666 8.49483 2.6666C5.55035 2.6666 3.16297 5.05279 3.1615 7.99727C3.16002 10.9417 5.54502 13.3303 8.4895 13.3333ZM9.16683 11.9999H7.8335V10.6666H9.16683V11.9999ZM9.16683 9.99993H7.8335C7.81243 9.13171 8.26426 8.32046 9.0135 7.88126C9.4535 7.54393 9.8335 7.25326 9.8335 6.6666C9.8335 5.93022 9.23654 5.33326 8.50016 5.33326C7.76378 5.33326 7.16683 5.93022 7.16683 6.6666H5.8335V6.6066C5.84421 5.65389 6.36238 4.77927 7.19281 4.3122C8.02324 3.84512 9.03977 3.85656 9.85948 4.3422C10.6792 4.82783 11.1775 5.71389 11.1668 6.6666C11.1191 7.38594 10.7333 8.0401 10.1268 8.42993C9.57863 8.77406 9.22332 9.35514 9.16683 9.99993Z"/>
</svg>
