<svg width="213" height="215" viewBox="0 0 213 215" fill="none" xmlns="http://www.w3.org/2000/svg">
<g opacity="0.9">
<path fill-rule="evenodd" clip-rule="evenodd" d="M125.459 5.23157C113.418 -1.74386 98.5822 -1.74385 86.5409 5.23157L27.4591 39.4571C15.4178 46.4325 8 59.3236 8 73.2745V141.726C8 155.676 15.4178 168.567 27.4591 175.543L86.5409 209.768C98.5822 216.744 113.418 216.744 125.459 209.768L184.541 175.543C196.582 168.567 204 155.676 204 141.726V73.2745C204 59.3236 196.582 46.4325 184.541 39.4571L125.459 5.23157ZM105.629 35.1833C90.9236 35.1833 79.0027 47.1443 79.0027 61.8988V153.667C79.0027 168.422 90.9236 180.382 105.629 180.382C120.334 180.382 132.255 168.422 132.255 153.667V61.8988C132.255 47.1443 120.334 35.1833 105.629 35.1833Z" fill="url(#paint0_linear_9148_26080)"/>
</g>
<defs>
<linearGradient id="paint0_linear_9148_26080" x1="106.003" y1="3.50587" x2="106.003" y2="211.871" gradientUnits="userSpaceOnUse">
<stop stop-color="#FFFEC9"/>
<stop offset="0.5" stop-color="#DDAD33"/>
<stop offset="1" stop-color="#885315"/>
</linearGradient>
</defs>
</svg>
