<svg width="96" height="96" viewBox="0 0 96 96" fill="none" xmlns="http://www.w3.org/2000/svg">
<path opacity="0.1" d="M48 96C74.5097 96 96 74.5097 96 48C96 21.4903 74.5097 0 48 0C21.4903 0 0 21.4903 0 48C0 74.5097 21.4903 96 48 96Z" fill="#B4C5D5"/>
<mask id="path-2-inside-1_5962_21595" fill="white">
<path fill-rule="evenodd" clip-rule="evenodd" d="M50.499 50.2646H55.7657L55.9679 47.5837C57.1633 47.3399 58.2886 46.9034 59.3098 46.3079L61.2633 47.9874L64.9874 44.2632L63.308 42.3097C63.9034 41.2885 64.3399 40.1634 64.5836 38.9681L67.2646 38.7658V33.4991L64.2498 33.2717C63.9182 32.2689 63.447 31.3296 62.8592 30.477L64.9874 28.0015L61.2632 24.2773L58.4216 26.7203C57.6744 26.3714 56.8817 26.1034 56.055 25.9279L55.7657 22H50.499L50.1843 26.2729C49.5249 26.4971 48.8935 26.7818 48.2967 27.1204L45.0014 24.2772L41.2773 28.0013L44.1205 31.2966C43.7818 31.8935 43.4971 32.525 43.2729 33.1844L39 33.4991V38.7658L42.9279 39.0551C43.1039 39.8843 43.3729 40.6791 43.7234 41.4282L41.2772 44.2634L45.0013 47.9875L47.472 45.8558C48.3259 46.4452 49.2668 46.9175 50.2715 47.2498L50.499 50.2646ZM58.6622 36.7466C58.6622 39.4614 56.4614 41.6622 53.7466 41.6622C51.0318 41.6622 48.831 39.4614 48.831 36.7466C48.831 34.0318 51.0318 31.8311 53.7466 31.8311C56.4614 31.8311 58.6622 34.0318 58.6622 36.7466Z"/>
</mask>
<path d="M55.7657 50.2646V51.7812H57.1722L57.278 50.3787L55.7657 50.2646ZM50.499 50.2646L48.9866 50.3787L49.0924 51.7812H50.499V50.2646ZM55.9679 47.5837L55.6649 46.0976L54.5418 46.3265L54.4556 47.4696L55.9679 47.5837ZM59.3098 46.3079L60.2985 45.1578L59.4792 44.4535L58.5458 44.9977L59.3098 46.3079ZM61.2633 47.9874L60.2746 49.1374L61.3412 50.0544L62.3358 49.0598L61.2633 47.9874ZM64.9874 44.2632L66.0599 45.3357L67.0545 44.3411L66.1375 43.2745L64.9874 44.2632ZM63.308 42.3097L61.9978 41.5457L61.4535 42.4791L62.1579 43.2984L63.308 42.3097ZM64.5836 38.9681L64.4695 37.4557L63.3265 37.5419L63.0975 38.6651L64.5836 38.9681ZM67.2646 38.7658L67.3787 40.2782L68.7812 40.1724V38.7658H67.2646ZM67.2646 33.4991H68.7812V32.0926L67.3787 31.9867L67.2646 33.4991ZM64.2498 33.2717L62.8098 33.7478L63.1273 34.708L64.1357 34.784L64.2498 33.2717ZM62.8592 30.477L61.7091 29.4882L60.9467 30.375L61.6105 31.3378L62.8592 30.477ZM64.9874 28.0015L66.1374 28.9902L67.0544 27.9236L66.0598 26.929L64.9874 28.0015ZM61.2632 24.2773L62.3357 23.2049L61.3411 22.2103L60.2745 23.1273L61.2632 24.2773ZM58.4216 26.7203L57.7797 28.0945L58.6674 28.5091L59.4103 27.8704L58.4216 26.7203ZM56.055 25.9279L54.5424 26.0393L54.626 27.175L55.74 27.4115L56.055 25.9279ZM55.7657 22L57.2782 21.8886L57.1747 20.4833H55.7657V22ZM50.499 22V20.4833H49.0899L48.9864 21.8886L50.499 22ZM50.1843 26.2729L50.6725 27.7089L51.6231 27.3856L51.6969 26.3843L50.1843 26.2729ZM48.2967 27.1204L47.306 28.2688L48.1154 28.9671L49.0452 28.4396L48.2967 27.1204ZM45.0014 24.2772L45.9922 23.1289L44.9253 22.2084L43.9289 23.2047L45.0014 24.2772ZM41.2773 28.0013L40.2048 26.9288L39.2085 27.9252L40.1289 28.9921L41.2773 28.0013ZM44.1205 31.2966L45.4396 32.0451L45.9672 31.1153L45.2688 30.3058L44.1205 31.2966ZM43.2729 33.1844L43.3843 34.697L44.3856 34.6233L44.7088 33.6727L43.2729 33.1844ZM39 33.4991L38.8886 31.9865L37.4833 32.09V33.4991H39ZM39 38.7658H37.4833V40.1749L38.8886 40.2784L39 38.7658ZM42.9279 39.0551L44.4115 38.7401L44.175 37.6261L43.0393 37.5425L42.9279 39.0551ZM43.7234 41.4282L44.8717 42.419L45.5134 41.6753L45.0971 40.7855L43.7234 41.4282ZM41.2772 44.2634L40.1289 43.2726L39.2084 44.3395L40.2047 45.3358L41.2772 44.2634ZM45.0013 47.9875L43.9288 49.06L44.9252 50.0563L45.9921 49.1358L45.0013 47.9875ZM47.472 45.8558L48.3335 44.6075L47.3687 43.9417L46.4812 44.7075L47.472 45.8558ZM50.2715 47.2498L51.7839 47.1357L51.7078 46.1273L50.7477 45.8098L50.2715 47.2498ZM55.7657 48.7479H50.499V51.7812H55.7657V48.7479ZM54.4556 47.4696L54.2533 50.1505L57.278 50.3787L57.4803 47.6978L54.4556 47.4696ZM56.2709 49.0698C57.6316 48.7923 58.9122 48.2954 60.0738 47.6181L58.5458 44.9977C57.6649 45.5114 56.6951 45.8875 55.6649 46.0976L56.2709 49.0698ZM62.2521 46.8373L60.2985 45.1578L58.3211 47.458L60.2746 49.1374L62.2521 46.8373ZM63.915 43.1908L60.1909 46.9149L62.3358 49.0598L66.0599 45.3357L63.915 43.1908ZM62.1579 43.2984L63.8374 45.252L66.1375 43.2745L64.4581 41.321L62.1579 43.2984ZM64.6182 43.0736C65.2954 41.9122 65.7923 40.6316 66.0697 39.2711L63.0975 38.6651C62.8875 39.6951 62.5114 40.6649 61.9978 41.5457L64.6182 43.0736ZM67.1505 37.2534L64.4695 37.4557L64.6977 40.4804L67.3787 40.2782L67.1505 37.2534ZM65.7479 33.4991V38.7658H68.7812V33.4991H65.7479ZM64.1357 34.784L67.1505 35.0115L67.3787 31.9867L64.3639 31.7593L64.1357 34.784ZM65.6898 32.7955C65.3123 31.654 64.7761 30.5855 64.1079 29.6161L61.6105 31.3378C62.1178 32.0738 62.5241 32.8838 62.8098 33.7478L65.6898 32.7955ZM63.8373 27.0127L61.7091 29.4882L64.0093 31.4657L66.1374 28.9902L63.8373 27.0127ZM60.1908 25.3498L63.9149 29.0739L66.0598 26.929L62.3357 23.2049L60.1908 25.3498ZM59.4103 27.8704L62.252 25.4274L60.2745 23.1273L57.4328 25.5702L59.4103 27.8704ZM59.0634 25.3462C58.2131 24.949 57.3109 24.6441 56.3699 24.4443L55.74 27.4115C56.4525 27.5628 57.1356 27.7937 57.7797 28.0945L59.0634 25.3462ZM54.2531 22.1114L54.5424 26.0393L57.5675 25.8165L57.2782 21.8886L54.2531 22.1114ZM50.499 23.5167H55.7657V20.4833H50.499V23.5167ZM51.6969 26.3843L52.0116 22.1114L48.9864 21.8886L48.6717 26.1615L51.6969 26.3843ZM49.696 24.837C48.9455 25.0922 48.2271 25.4162 47.5483 25.8013L49.0452 28.4396C49.56 28.1475 50.1044 27.9021 50.6725 27.7089L49.696 24.837ZM44.0106 25.4255L47.306 28.2688L49.2875 25.9721L45.9922 23.1289L44.0106 25.4255ZM42.3497 29.0737L46.0738 25.3496L43.9289 23.2047L40.2048 26.9288L42.3497 29.0737ZM45.2688 30.3058L42.4256 27.0105L40.1289 28.9921L42.9722 32.2874L45.2688 30.3058ZM42.8014 30.5481C42.4162 31.227 42.0922 31.9455 41.8369 32.6962L44.7088 33.6727C44.902 33.1044 45.1475 32.56 45.4396 32.0451L42.8014 30.5481ZM39.1114 35.0117L43.3843 34.697L43.1615 31.6719L38.8886 31.9865L39.1114 35.0117ZM40.5167 38.7658V33.4991H37.4833V38.7658H40.5167ZM43.0393 37.5425L39.1114 37.2532L38.8886 40.2784L42.8165 40.5676L43.0393 37.5425ZM41.4443 39.3701C41.6447 40.3138 41.9508 41.2185 42.3497 42.071L45.0971 40.7855C44.795 40.1397 44.5632 39.4547 44.4115 38.7401L41.4443 39.3701ZM42.4255 45.2542L44.8717 42.419L42.5751 40.4374L40.1289 43.2726L42.4255 45.2542ZM46.0737 46.9151L42.3496 43.191L40.2047 45.3358L43.9288 49.06L46.0737 46.9151ZM46.4812 44.7075L44.0105 46.8392L45.9921 49.1358L48.4627 47.0041L46.4812 44.7075ZM46.6105 47.104C47.5813 47.774 48.6516 48.3115 49.7953 48.6898L50.7477 45.8098C49.882 45.5235 49.0706 45.1163 48.3335 44.6075L46.6105 47.104ZM52.0114 50.1505L51.7839 47.1357L48.7592 47.3639L48.9866 50.3787L52.0114 50.1505ZM53.7466 43.1789C57.299 43.1789 60.1788 40.2991 60.1788 36.7466H57.1455C57.1455 38.6238 55.6238 40.1456 53.7466 40.1456V43.1789ZM47.3144 36.7466C47.3144 40.2991 50.1942 43.1789 53.7466 43.1789V40.1456C51.8694 40.1456 50.3477 38.6238 50.3477 36.7466H47.3144ZM53.7466 30.3144C50.1942 30.3144 47.3144 33.1942 47.3144 36.7466H50.3477C50.3477 34.8695 51.8694 33.3477 53.7466 33.3477V30.3144ZM60.1788 36.7466C60.1788 33.1942 57.299 30.3144 53.7466 30.3144V33.3477C55.6238 33.3477 57.1455 34.8695 57.1455 36.7466H60.1788Z" fill="#0ED3DF" mask="url(#path-2-inside-1_5962_21595)"/>
<path d="M60.1451 63.7597L60.2215 63.283L59.8219 63.0121C59.1003 62.5228 58.4905 61.8992 58.0189 61.1856L57.7492 60.7776L57.2663 60.855L56.2967 61.0103L55.5149 58.0925L56.4491 57.7358L56.9012 57.5632L56.9351 57.0804C56.9643 56.6637 57.0337 56.2433 57.1462 55.8235C57.2587 55.4037 57.4089 55.0048 57.5919 54.6293L57.8039 54.1943L57.4987 53.8188L56.868 53.0428L59.004 50.9067L59.766 51.5261L60.1455 51.8345L60.5831 51.616C61.3495 51.2333 62.1907 50.9981 63.0617 50.9355L63.5448 50.9009L63.7165 50.4479L64.0552 49.5541L66.9699 50.3351L66.8226 51.2402L66.7434 51.7271L67.1563 51.9969C67.9072 52.4875 68.5413 53.1217 69.0302 53.8516L69.3013 54.2563L69.7821 54.178L70.6686 54.0338L71.4496 56.9484L70.6292 57.2594L70.1703 57.4333L70.141 57.9232C70.1147 58.3619 70.044 58.8052 69.9255 59.2477C69.8069 59.6901 69.6465 60.1093 69.4499 60.5024L69.2303 60.9413L69.5408 61.3214L70.0958 62.0009L67.9621 64.1346L67.2665 63.5664L66.8893 63.2582L66.4522 63.4732C65.6649 63.8603 64.8 64.0924 63.9057 64.1423L63.4149 64.1696L63.2395 64.6289L62.9112 65.4888L59.9933 64.707L60.1451 63.7597ZM62.7034 60.6421C64.4191 61.1018 66.1827 60.0837 66.6424 58.368C67.1021 56.6523 66.0839 54.8888 64.3682 54.429C62.6525 53.9693 60.889 54.9875 60.4293 56.7032C59.9696 58.4189 60.9878 60.1824 62.7034 60.6421Z" stroke="#0ED3DF" stroke-width="1.51667"/>
<path d="M52.7023 36.5177H30.3333C29.0447 36.5177 28 37.5624 28 38.851V64.9067C28 66.1954 29.0447 67.24 30.3333 67.24H52.7023C53.991 67.24 55.0357 66.1954 55.0357 64.9067V38.851C55.0357 37.5624 53.991 36.5177 52.7023 36.5177Z" fill="#2D3A44" stroke="#0ED3DF" stroke-width="1.75"/>
<circle cx="36.5" cy="50.5" r="1.5" fill="#0ED3DF"/>
<circle cx="41.5" cy="50.5" r="1.5" fill="#0ED3DF"/>
<circle cx="46.5" cy="50.5" r="1.5" fill="#0ED3DF"/>
</svg>
