<svg width="23" height="21" viewBox="0 0 23 21" fill="none" xmlns="http://www.w3.org/2000/svg">
<path d="M0 17.7414L0.00354665 17.7379L0 17.7414L0.00886662 17.7361L4.34642 14.4597C4.32514 14.2302 4.31272 13.997 4.31272 13.7603V7.96576L8.62544 5.57568V11.2243L13.6564 7.42297V2.78873L18.6873 0V3.61983L23 0.361271V1.08559L18.6873 4.2089V4.79797L23 1.80992V2.53424L18.6873 5.38525V5.97432L23 3.25856V3.98288L18.6873 6.56161V7.15068L23 4.7072V5.43153L18.6873 7.73975V8.32703L23 6.15585V6.88017L18.6873 8.9161V9.50339L23 7.60271V8.32703L18.6873 10.0925V13.7586C18.6873 17.7575 15.4687 21 11.5 21C8.25305 21 5.50794 18.8306 4.61773 15.8514L0.00354665 17.7397L0 17.7414ZM4.54503 15.5952L0.00531997 17.7379L0.00354665 17.7397L4.57872 15.7233C4.56808 15.6806 4.55744 15.6379 4.54503 15.5952ZM4.39252 14.837L0.00886662 17.7361L0.00531997 17.7397L4.41203 14.9652C4.40493 14.9225 4.39784 14.8797 4.39252 14.837ZM4.48473 15.3407L0.0106399 17.7361L4.51311 15.4688C4.50424 15.4261 4.4936 15.3834 4.48473 15.3407ZM4.35883 14.5843L0.0141866 17.7308L4.37479 14.7107C4.36947 14.6697 4.36415 14.627 4.35883 14.5843ZM13.6564 12.1515L8.66268 14.1964C8.86839 15.3869 9.90046 16.2928 11.1418 16.2928C12.5303 16.2928 13.6581 15.1574 13.6581 13.7586V12.1515H13.6564ZM13.6564 11.2919L8.62544 13.6678V13.7586C8.62544 13.8191 8.62722 13.8778 8.63076 13.9365L13.6564 11.7208V11.2919ZM13.6564 10.4324L8.62544 13.125V13.3955L13.6564 10.8613V10.4324ZM13.6564 9.57102L8.62544 12.5822V12.8545L13.6564 10.0017V9.57102ZM13.6564 8.71144L8.62544 12.0376V12.3099L13.6564 9.14212V8.71144ZM13.6564 7.85186L8.62544 11.4948V11.7653L13.6564 8.28076V7.85186ZM0.00354665 17.7397L0.00531997 17.7379L4.45813 15.2143C4.44927 15.1716 4.44217 15.1307 4.43331 15.088L0.00354665 17.7397L0.00177332 17.7414L0.00354665 17.7397Z" fill="#0ED3DF"/>
</svg>
