<svg width="22" height="22" viewBox="0 0 22 22" fill="none" xmlns="http://www.w3.org/2000/svg">
<path d="M10.989 22C4.9153 21.9939 -0.00404313 17.0664 2.49352e-06 10.9927C0.00405311 4.91897 4.92997 -0.0020213 11.0037 6.22846e-07C17.0774 0.00202379 22 4.92629 22 11C21.9964 17.0779 17.0669 22.0024 10.989 22ZM2.2 11.1892C2.25205 16.0306 6.20522 19.9205 11.0468 19.8946C15.8884 19.8684 19.7995 15.9362 19.7995 11.0946C19.7995 6.25295 15.8884 2.32075 11.0468 2.29459C6.20522 2.2687 2.25205 6.15863 2.2 11V11.1892ZM12.1 16.5H9.9V14.3H12.1V16.5ZM12.1 12.1H9.9V5.49999H12.1V12.1Z" fill="#161F27"/>
</svg>
